<?xml version="1.0" standalone="no"?><!DOCTYPE svg PUBLIC "-//W3C//DTD SVG 1.1//EN" "http://www.w3.org/Graphics/SVG/1.1/DTD/svg11.dtd"><svg t="1707915331970" class="icon" viewBox="0 0 1024 1024" version="1.1" xmlns="http://www.w3.org/2000/svg" p-id="7856" xmlns:xlink="http://www.w3.org/1999/xlink" width="48" height="48"><path d="M512 85.333333c235.640936 0 426.666667 191.025731 426.666667 426.666667S747.640936 938.666667 512 938.666667 85.333333 747.640936 85.333333 512 276.359064 85.333333 512 85.333333z m0 85.333334c-188.513201 0-341.333333 152.820132-341.333333 341.333333s152.820132 341.333333 341.333333 341.333333 341.333333-152.820132 341.333333-341.333333-152.820132-341.333333-341.333333-341.333333z m256 298.666666c23.564433 0 42.666667 19.102234 42.666667 42.666667s-19.102234 42.666667-42.666667 42.666667h-512c-23.564433 0-42.666667-19.102234-42.666667-42.666667s19.102234-42.666667 42.666667-42.666667h512z" p-id="7857"></path></svg>